<?xml version="1.0" encoding="utf-8"?>
<!-- Generator: Adobe Illustrator 24.2.3, SVG Export Plug-In . SVG Version: 6.00 Build 0)  -->
<svg version="1.1" id="Шар_1" xmlns="http://www.w3.org/2000/svg" xmlns:xlink="http://www.w3.org/1999/xlink" x="0px" y="0px"
	 viewBox="0 0 326 44.8" style="enable-background:new 0 0 326 44.8;" xml:space="preserve">
<style type="text/css">
	.st0{fill:#fff;}
</style>
<path class="st0" d="M129.97,9.02c0.61,0.32,1.45,0.46,2.13,0.44c0.71-0.02,1.5-0.09,2.13-0.44c0.46-0.26,0.77-0.53,0.88-1.06
	c0.12-0.57,0.24-1.14,0.36-1.7c0.09-0.45-0.59-0.91-0.88-1.06c-0.61-0.32-1.45-0.45-2.13-0.44c-0.71,0.01-1.5,0.09-2.13,0.44
	c-0.46,0.26-0.77,0.53-0.88,1.06c-0.12,0.57-0.24,1.14-0.36,1.7C128.99,8.4,129.68,8.87,129.97,9.02z M243,9.02
	c0.61,0.32,1.45,0.46,2.12,0.44c0.71-0.02,1.5-0.09,2.13-0.44c0.46-0.26,0.77-0.53,0.88-1.06c0.12-0.57,0.24-1.14,0.36-1.7
	c0.1-0.45-0.59-0.91-0.88-1.06c-0.61-0.32-1.45-0.45-2.13-0.44c-0.71,0.01-1.5,0.09-2.13,0.44c-0.46,0.26-0.76,0.53-0.88,1.06
	c-0.12,0.57-0.25,1.14-0.36,1.7C242.02,8.4,242.71,8.87,243,9.02z M316.25,33.48c-4.92,0-6.69-2.31-5.65-7.2
	c0-0.01-0.01-0.03-0.01-0.04c0.43-1.86,0.34-3.8-0.49-5.63c-1.96-4.32-7.35-5.57-11.65-4.96c-5.63,0.8-10.39,4.75-11.73,10.31
	c-0.53,2.91,0.3,5.6,2.14,7.51c-2.16,0-1.04,0-6.64,0h-3.37c-0.04,0-0.09,0-0.14,0.01c-0.55,0-1.09,0-1.63-0.01
	c-1.86-0.05-1.48-2.23-1.2-3.63c0.58-2.89,1.54-5.84,1.81-8.78c0.24-2.58-1.2-4.3-3.62-5.03c-2.48-0.75-5.3-0.48-7.86-0.48
	c-2.01,0-4.01,0-6.02,0c-1.07,0-2.74,0.26-3,1.5c-1.16,5.47-2.33,10.94-3.49,16.41h-11.05c1.2-5.7,2.61-12.48,3.78-17.97h-6.01
	c-1.16,5.48-2.57,12.27-3.77,17.97h-21.9c1.05-4.97,2.11-9.94,3.16-14.9c1.52,0,1.65,0,3.18,0c0.93,0,2.41-0.26,3.32,0.01
	c1.11,0.34,0.99,1.77,0.87,2.73c-0.01,0.05-0.01,0.1-0.02,0.15h6.02c0.13-0.95,0.14-1.92-0.24-2.81c-1.36-3.27-5.92-3.09-8.85-3.09
	h-6.97c-1.07,0-2.74,0.26-3.01,1.5c-1.16,5.47-2.33,10.94-3.49,16.41h-4.44c-4.88,0-6.67-2.27-5.67-7.09
	c0.46-1.89,0.38-3.88-0.46-5.74c-1.65-3.63-5.73-5.09-9.54-5.1c-0.01,0-0.01-0.01-0.02-0.01c-5.27,0-14.34-0.01-22.77-0.01
	c0.32-1.3,0.68-2.58,1.13-3.79c1.44-3.88,4.12-7.38,8.26-8.48c0.17-0.04,0.82-0.17,1.43-0.23c-0.38,0.05,0.82-0.01,1.08-0.01
	c1.61,0.01,7.24,0,8.85-0.01l0.8-3.01c-0.45,0-5.31,0.01-5.76,0.01c-5.4,0.02-10.94,0.08-15.4,3.64c-3.22,2.57-5.14,7.63-6.22,11.87
	c-7.42-0.01-13.34-0.01-14.06-0.01l-0.73,3.06c0,0,6.33,0,14.1,0c-1.14,5.31-2.11,9.53-3.31,14.9c-3.63,0-15.97,0-26.33,0
	c1.2-5.7,2.61-12.48,3.77-17.97h-6.01c-1.16,5.48-2.57,12.27-3.77,17.97c-4.52,0-8.02,0-9.16,0c-0.49,0-0.93,0.09-1.31-0.22
	c-0.95-0.78-0.34-2.84-0.14-3.81c0.4-1.91,0.81-3.81,1.22-5.71c0.35-1.63,0.9-3.45,0.23-5.07c-1.36-3.27-5.92-3.09-8.85-3.09h-8.36
	c-1.07,0-2.74,0.26-3.01,1.5c-1.16,5.47-2.33,10.94-3.49,16.41H68.59c1.06-4.97,2.11-9.94,3.17-14.9c1.52,0,1.65,0,3.17,0
	c0.94,0,2.41-0.26,3.32,0.01c1.11,0.34,0.99,1.77,0.87,2.73c-0.01,0.05-0.01,0.1-0.02,0.15h6.02c0.14-0.95,0.14-1.92-0.23-2.81
	c-1.36-3.27-5.92-3.09-8.85-3.09h-6.97c-1.07,0-2.74,0.26-3.01,1.5c-1.16,5.47-2.32,10.94-3.49,16.41H49.44
	c0.31-0.24,0.62-0.48,0.9-0.74c3.26-2.95,5.33-7.83,3.4-12.08c-1.72-3.79-6.09-5.22-10.04-5.09c-1.93,0-12.34-0.02-22.43-0.04
	c0.32-1.3,0.68-2.58,1.12-3.79c1.44-3.88,4.12-7.38,8.26-8.48c0.17-0.04,0.83-0.17,1.43-0.23c-0.38,0.05,0.83-0.01,1.08-0.01
	c1.61,0.01,7.23,0,8.85-0.01L42.81,0c-0.38,0-5.18,0.01-5.56,0.01c-5.46,0.03-11.09,0.03-15.61,3.64
	c-3.22,2.57-5.14,7.62-6.22,11.86c-7.65-0.02-14-0.03-14.65-0.03L0,18.57h14.73c-1.19,5.53-2.19,9.87-3.46,15.58
	c-0.69,3.08-1.68,7.57-2.38,10.65h6.01c0.74-3.26,1.78-7.93,2.5-11.19c0.75-3.43,1.5-6.86,2.25-10.3c0.33-1.53,0.63-3.13,0.95-4.74
	h14.64c-2.37,1.83-4.14,4.39-4.88,7.44c-0.81,4.43,1.52,8.35,5.79,9.79c1.63,0.55,3.36,0.75,5.08,0.66
	c0.17,0.01,0.33,0.02,0.45,0.02h51.34c0.03,0,0.07,0,0.11,0c1.48,0.04,3.06-0.42,3.29-1.5c1.16-5.47,2.33-10.94,3.49-16.41
	c1.52,0,3.05,0,4.57,0c0.94,0,2.42-0.26,3.32,0.01c1.11,0.34,0.99,1.77,0.87,2.73c-0.4,3.4-2.09,6.88-2.01,10.31
	c0.08,3.83,3.91,4.8,7.11,4.85c9.59,0.14,31.67,0.02,41.52,0c-0.61,2.75-1.32,5.95-1.86,8.31h6.01c0.74-3.26,1.78-7.93,2.5-11.19
	c0.75-3.43,1.5-6.86,2.25-10.3c0.33-1.53,0.63-3.13,0.95-4.74h14.48c-2.36,1.83-4.13,4.39-4.87,7.43c-0.81,4.43,1.53,8.35,5.79,9.79
	c4.72,1.6,10.33,0.33,14.05-2.95c1.77,2.21,4.92,3.64,9.94,3.64h51.43c0.03,0,0.06,0,0.1,0c1.49,0.05,3.09-0.41,3.33-1.5
	c1.16-5.47,2.32-10.94,3.49-16.41c0.82,0,1.65,0,2.47,0c1.07,0,2.13,0,3.2,0c0.61,0,1.79-0.21,2.35,0.04
	c1.81,0.81,0.35,4.73,0.05,6.14c-0.49,2.33-1.63,5.19-1.27,7.6c0.72,4.79,6.98,4.15,10.66,4.14h16.62l0.01-0.05
	c3.48-0.04,6.99-1.34,9.58-3.62c1.77,2.22,4.92,3.67,9.97,3.67h8.85l0.64-3.01H316.25z M48.28,26.01c-0.73,3.3-4.05,7.4-7.72,7.46
	c-3.76,0.06-4.71-4.6-4.19-7.45c0.8-3.31,4.08-7.51,7.84-7.45C47.82,18.61,48.9,23.21,48.28,26.01z M192.67,26
	c-0.72,3.3-4.05,7.4-7.72,7.45c-3.76,0.06-4.71-4.6-4.19-7.45c0.8-3.31,4.08-7.5,7.84-7.45C192.22,18.59,193.29,23.19,192.67,26z
	 M304.64,25.96c-0.73,3.3-4.05,7.4-7.72,7.46c-3.76,0.06-4.71-4.6-4.19-7.45c0.8-3.31,4.08-7.5,7.85-7.45
	C304.18,18.56,305.26,23.15,304.64,25.96z"/>
</svg>
